<svg width="34" height="34" viewBox="0 0 34 34" fill="none" xmlns="http://www.w3.org/2000/svg">
<path d="M17.0561 14C16.2575 14 15.4916 14.3161 14.9269 14.8787C14.3622 15.4413 14.0449 16.2044 14.0449 17C14.0449 18.53 13.8943 20.765 13.6534 23M20.0673 18.68C20.0673 22.25 20.0673 28.25 18.5617 32M25.0208 30.53C25.2015 29.63 25.6682 27.08 25.7736 26M2 17C2 13.8518 2.99427 10.7833 4.84196 8.22935C6.68966 5.67536 9.29711 3.76531 12.295 2.76975C15.2928 1.77419 18.5291 1.74359 21.5454 2.6823C24.5617 3.621 27.205 5.48141 29.101 8M2 23H2.01506M31.8111 23C32.1122 20 32.0084 14.969 31.8111 14M6.51684 28.25C7.26964 26 8.02245 21.5 8.02245 17C8.02093 15.9783 8.19404 14.9638 8.53436 14M12.0123 32C12.3285 31.01 12.6898 30.02 12.8705 29M12.5393 9.2C13.913 8.40984 15.4713 7.99398 17.0576 7.99423C18.6438 7.99448 20.202 8.41084 21.5755 9.20144C22.9489 9.99204 24.0892 11.129 24.8817 12.498C25.6741 13.867 26.0908 15.4197 26.0898 17V20" stroke="#FFFEFE" stroke-width="3" stroke-linecap="round" stroke-linejoin="round"/>
</svg>
